<svg id="visual" viewBox="0 0 900 600" width="900" height="600" xmlns="http://www.w3.org/2000/svg" xmlns:xlink="http://www.w3.org/1999/xlink" version="1.1"><rect x="0" y="0" width="900" height="600" fill="#8BC6EC"></rect><defs><linearGradient id="grad1_0" x1="33.3%" y1="100%" x2="100%" y2="0%"><stop offset="20%" stop-color="#ffffff" stop-opacity="1"></stop><stop offset="80%" stop-color="#ffffff" stop-opacity="1"></stop></linearGradient></defs><defs><linearGradient id="grad1_1" x1="33.3%" y1="100%" x2="100%" y2="0%"><stop offset="20%" stop-color="#ffffff" stop-opacity="1"></stop><stop offset="80%" stop-color="#8bc6ec" stop-opacity="1"></stop></linearGradient></defs><defs><linearGradient id="grad2_0" x1="0%" y1="100%" x2="66.7%" y2="0%"><stop offset="20%" stop-color="#ffffff" stop-opacity="1"></stop><stop offset="80%" stop-color="#ffffff" stop-opacity="1"></stop></linearGradient></defs><defs><linearGradient id="grad2_1" x1="0%" y1="100%" x2="66.7%" y2="0%"><stop offset="20%" stop-color="#8bc6ec" stop-opacity="1"></stop><stop offset="80%" stop-color="#ffffff" stop-opacity="1"></stop></linearGradient></defs><g transform="translate(900, 600)"><path d="M-162.2 0C-154.9 -18.7 -147.6 -37.3 -141.4 -58.6C-135.1 -79.8 -129.8 -103.6 -114.7 -114.7C-99.6 -125.9 -74.7 -124.4 -54 -130.3C-33.2 -136.1 -16.6 -149.2 0 -162.2L0 0Z" fill="#c8e2f6"></path><path d="M-81.1 0C-77.5 -9.3 -73.8 -18.7 -70.7 -29.3C-67.5 -39.9 -64.9 -51.8 -57.4 -57.4C-49.8 -62.9 -37.4 -62.2 -27 -65.1C-16.6 -68 -8.3 -74.6 0 -81.1L0 0Z" fill="#ffffff"></path></g><g transform="translate(0, 0)"><path d="M162.2 0C149.6 16.6 136.9 33.1 131.2 54.3C125.5 75.5 126.8 101.4 114.7 114.7C102.7 128.1 77.2 129 55.9 134.9C34.5 140.7 17.3 151.5 0 162.2L0 0Z" fill="#c8e2f6"></path><path d="M81.1 0C74.8 8.3 68.4 16.6 65.6 27.2C62.7 37.8 63.4 50.7 57.4 57.4C51.3 64.1 38.6 64.5 27.9 67.4C17.3 70.4 8.6 75.7 0 81.1L0 0Z" fill="#ffffff"></path></g></svg>